<svg width="197" height="189" viewBox="0 0 197 189" fill="none" xmlns="http://www.w3.org/2000/svg">
<path d="M20 44C20 49.5228 15.5228 54 10 54C4.47715 54 0 49.5228 0 44C0 38.4772 4.47715 34 10 34C15.5228 34 20 38.4772 20 44Z" fill="#FFB000"/>
<path d="M121 9C121 13.9706 116.971 18 112 18C107.029 18 103 13.9706 103 9C103 4.02944 107.029 0 112 0C116.971 0 121 4.02944 121 9Z" fill="#FFB000"/>
<path d="M21 144C21 146.209 19.2091 148 17 148C14.7909 148 13 146.209 13 144C13 141.791 14.7909 140 17 140C19.2091 140 21 141.791 21 144Z" fill="#FFB000"/>
<path d="M174 181.5C174 185.642 170.642 189 166.5 189C162.358 189 159 185.642 159 181.5C159 177.358 162.358 174 166.5 174C170.642 174 174 177.358 174 181.5Z" fill="#FFB000"/>
<path d="M197 59C197 61.7614 194.761 64 192 64C189.239 64 187 61.7614 187 59C187 56.2386 189.239 54 192 54C194.761 54 197 56.2386 197 59Z" fill="#FFB000"/>
<path fill-rule="evenodd" clip-rule="evenodd" d="M112 8.99989L10.0002 43.9999L9.35107 42.1082L111.351 7.10816L112 8.99989Z" fill="#FFB000"/>
<path fill-rule="evenodd" clip-rule="evenodd" d="M192 59L112 8.99995L113.06 7.30396L193.06 57.304L192 59Z" fill="#FFB000"/>
<path fill-rule="evenodd" clip-rule="evenodd" d="M112 9.00011L16.9999 144L15.3643 142.849L110.364 7.84913L112 9.00011Z" fill="#FFB000"/>
<path fill-rule="evenodd" clip-rule="evenodd" d="M167 182L112 9L113.906 8.39404L168.906 181.394L167 182Z" fill="#FFB000"/>
</svg>
