<svg width="334" height="184" viewBox="0 0 334 184" fill="none" xmlns="http://www.w3.org/2000/svg">
<path fill-rule="evenodd" clip-rule="evenodd" d="M34 17C34 26.3888 26.3888 34 17 34C7.61116 34 0 26.3888 0 17C0 7.61116 7.61116 0 17 0C26.3888 0 34 7.61116 34 17ZM17 32C25.2843 32 32 25.2843 32 17C32 8.71573 25.2843 2 17 2C8.71573 2 2 8.71573 2 17C2 25.2843 8.71573 32 17 32Z" fill="black"/>
<path fill-rule="evenodd" clip-rule="evenodd" d="M94 17C94 26.3888 86.3888 34 77 34C67.6112 34 60 26.3888 60 17C60 7.61116 67.6112 0 77 0C86.3888 0 94 7.61116 94 17ZM77 32C85.2843 32 92 25.2843 92 17C92 8.71573 85.2843 2 77 2C68.7157 2 62 8.71573 62 17C62 25.2843 68.7157 32 77 32Z" fill="black"/>
<path fill-rule="evenodd" clip-rule="evenodd" d="M154 17C154 26.3888 146.389 34 137 34C127.611 34 120 26.3888 120 17C120 7.61116 127.611 0 137 0C146.389 0 154 7.61116 154 17ZM137 32C145.284 32 152 25.2843 152 17C152 8.71573 145.284 2 137 2C128.716 2 122 8.71573 122 17C122 25.2843 128.716 32 137 32Z" fill="black"/>
<path fill-rule="evenodd" clip-rule="evenodd" d="M214 17C214 26.3888 206.389 34 197 34C187.611 34 180 26.3888 180 17C180 7.61116 187.611 0 197 0C206.389 0 214 7.61116 214 17ZM197 32C205.284 32 212 25.2843 212 17C212 8.71573 205.284 2 197 2C188.716 2 182 8.71573 182 17C182 25.2843 188.716 32 197 32Z" fill="black"/>
<path fill-rule="evenodd" clip-rule="evenodd" d="M274 17C274 26.3888 266.389 34 257 34C247.611 34 240 26.3888 240 17C240 7.61116 247.611 0 257 0C266.389 0 274 7.61116 274 17ZM257 32C265.284 32 272 25.2843 272 17C272 8.71573 265.284 2 257 2C248.716 2 242 8.71573 242 17C242 25.2843 248.716 32 257 32Z" fill="black"/>
<path fill-rule="evenodd" clip-rule="evenodd" d="M34 117C34 126.389 26.3888 134 17 134C7.61116 134 0 126.389 0 117C0 107.611 7.61116 100 17 100C26.3888 100 34 107.611 34 117ZM17 132C25.2843 132 32 125.284 32 117C32 108.716 25.2843 102 17 102C8.71573 102 2 108.716 2 117C2 125.284 8.71573 132 17 132Z" fill="black"/>
<path fill-rule="evenodd" clip-rule="evenodd" d="M94 117C94 126.389 86.3888 134 77 134C67.6112 134 60 126.389 60 117C60 107.611 67.6112 100 77 100C86.3888 100 94 107.611 94 117ZM77 132C85.2843 132 92 125.284 92 117C92 108.716 85.2843 102 77 102C68.7157 102 62 108.716 62 117C62 125.284 68.7157 132 77 132Z" fill="black"/>
<path fill-rule="evenodd" clip-rule="evenodd" d="M154 117C154 126.389 146.389 134 137 134C127.611 134 120 126.389 120 117C120 107.611 127.611 100 137 100C146.389 100 154 107.611 154 117ZM137 132C145.284 132 152 125.284 152 117C152 108.716 145.284 102 137 102C128.716 102 122 108.716 122 117C122 125.284 128.716 132 137 132Z" fill="black"/>
<path fill-rule="evenodd" clip-rule="evenodd" d="M214 117C214 126.389 206.389 134 197 134C187.611 134 180 126.389 180 117C180 107.611 187.611 100 197 100C206.389 100 214 107.611 214 117ZM197 132C205.284 132 212 125.284 212 117C212 108.716 205.284 102 197 102C188.716 102 182 108.716 182 117C182 125.284 188.716 132 197 132Z" fill="black"/>
<path fill-rule="evenodd" clip-rule="evenodd" d="M274 117C274 126.389 266.389 134 257 134C247.611 134 240 126.389 240 117C240 107.611 247.611 100 257 100C266.389 100 274 107.611 274 117ZM257 132C265.284 132 272 125.284 272 117C272 108.716 265.284 102 257 102C248.716 102 242 108.716 242 117C242 125.284 248.716 132 257 132Z" fill="black"/>
<path fill-rule="evenodd" clip-rule="evenodd" d="M94 167C94 176.389 86.3888 184 77 184C67.6112 184 60 176.389 60 167C60 157.611 67.6112 150 77 150C86.3888 150 94 157.611 94 167ZM77 182C85.2843 182 92 175.284 92 167C92 158.716 85.2843 152 77 152C68.7157 152 62 158.716 62 167C62 175.284 68.7157 182 77 182Z" fill="black"/>
<path fill-rule="evenodd" clip-rule="evenodd" d="M154 167C154 176.389 146.389 184 137 184C127.611 184 120 176.389 120 167C120 157.611 127.611 150 137 150C146.389 150 154 157.611 154 167ZM137 182C145.284 182 152 175.284 152 167C152 158.716 145.284 152 137 152C128.716 152 122 158.716 122 167C122 175.284 128.716 182 137 182Z" fill="black"/>
<path fill-rule="evenodd" clip-rule="evenodd" d="M214 167C214 176.389 206.389 184 197 184C187.611 184 180 176.389 180 167C180 157.611 187.611 150 197 150C206.389 150 214 157.611 214 167ZM197 182C205.284 182 212 175.284 212 167C212 158.716 205.284 152 197 152C188.716 152 182 158.716 182 167C182 175.284 188.716 182 197 182Z" fill="black"/>
<path fill-rule="evenodd" clip-rule="evenodd" d="M274 167C274 176.389 266.389 184 257 184C247.611 184 240 176.389 240 167C240 157.611 247.611 150 257 150C266.389 150 274 157.611 274 167ZM257 182C265.284 182 272 175.284 272 167C272 158.716 265.284 152 257 152C248.716 152 242 158.716 242 167C242 175.284 248.716 182 257 182Z" fill="black"/>
<path fill-rule="evenodd" clip-rule="evenodd" d="M334 167C334 176.389 326.389 184 317 184C307.611 184 300 176.389 300 167C300 157.611 307.611 150 317 150C326.389 150 334 157.611 334 167ZM317 182C325.284 182 332 175.284 332 167C332 158.716 325.284 152 317 152C308.716 152 302 158.716 302 167C302 175.284 308.716 182 317 182Z" fill="black"/>
<path fill-rule="evenodd" clip-rule="evenodd" d="M94 67C94 76.3888 86.3888 84 77 84C67.6112 84 60 76.3888 60 67C60 57.6112 67.6112 50 77 50C86.3888 50 94 57.6112 94 67ZM77 82C85.2843 82 92 75.2843 92 67C92 58.7157 85.2843 52 77 52C68.7157 52 62 58.7157 62 67C62 75.2843 68.7157 82 77 82Z" fill="black"/>
<path fill-rule="evenodd" clip-rule="evenodd" d="M154 67C154 76.3888 146.389 84 137 84C127.611 84 120 76.3888 120 67C120 57.6112 127.611 50 137 50C146.389 50 154 57.6112 154 67ZM137 82C145.284 82 152 75.2843 152 67C152 58.7157 145.284 52 137 52C128.716 52 122 58.7157 122 67C122 75.2843 128.716 82 137 82Z" fill="black"/>
<path fill-rule="evenodd" clip-rule="evenodd" d="M214 67C214 76.3888 206.389 84 197 84C187.611 84 180 76.3888 180 67C180 57.6112 187.611 50 197 50C206.389 50 214 57.6112 214 67ZM197 82C205.284 82 212 75.2843 212 67C212 58.7157 205.284 52 197 52C188.716 52 182 58.7157 182 67C182 75.2843 188.716 82 197 82Z" fill="black"/>
<path fill-rule="evenodd" clip-rule="evenodd" d="M274 67C274 76.3888 266.389 84 257 84C247.611 84 240 76.3888 240 67C240 57.6112 247.611 50 257 50C266.389 50 274 57.6112 274 67ZM257 82C265.284 82 272 75.2843 272 67C272 58.7157 265.284 52 257 52C248.716 52 242 58.7157 242 67C242 75.2843 248.716 82 257 82Z" fill="black"/>
<path fill-rule="evenodd" clip-rule="evenodd" d="M334 67C334 76.3888 326.389 84 317 84C307.611 84 300 76.3888 300 67C300 57.6112 307.611 50 317 50C326.389 50 334 57.6112 334 67ZM317 82C325.284 82 332 75.2843 332 67C332 58.7157 325.284 52 317 52C308.716 52 302 58.7157 302 67C302 75.2843 308.716 82 317 82Z" fill="black"/>
</svg>
