<svg width="30" height="30" viewBox="0 0 30 30" fill="none" xmlns="http://www.w3.org/2000/svg">
<path fill-rule="evenodd" clip-rule="evenodd" d="M-0.000237465 6.92305C-0.000237465 7.39041 0.047067 7.85419 0.139633 8.30766C0.318262 9.18273 0.665444 10.0194 1.1665 10.7693C1.92722 11.9078 3.00844 12.7951 4.27346 13.3191C5.53848 13.8431 6.93047 13.9802 8.27341 13.7131C9.61634 13.4459 10.8499 12.7866 11.8181 11.8184C12.7863 10.8502 13.4457 9.6166 13.7128 8.27367C13.9799 6.93073 13.8428 5.53874 13.3188 4.27372C12.7949 3.0087 11.9075 1.92747 10.769 1.16676C10.0191 0.665701 9.18247 0.318519 8.3074 0.139891C7.85393 0.0473244 7.39015 2.00272e-05 6.92279 2.00272e-05L6.92279 5.71898C6.98348 5.71898 7.04382 5.72357 7.10333 5.73259C7.27733 5.75898 7.44419 5.82331 7.59174 5.9219C7.78975 6.05421 7.94408 6.24226 8.03521 6.46227C8.12634 6.68229 8.15019 6.92439 8.10373 7.15795C8.05727 7.39152 7.94259 7.60607 7.7742 7.77446C7.60581 7.94285 7.39126 8.05753 7.1577 8.10399C6.92413 8.15045 6.68203 8.1266 6.46201 8.03547C6.242 7.94433 6.05395 7.79001 5.92164 7.592C5.82305 7.44445 5.75872 7.27758 5.73233 7.10359C5.72331 7.04408 5.71872 6.98374 5.71872 6.92305L-0.000237465 6.92305ZM4.73553 8.30766L1.56024 8.30766C1.71503 8.90717 1.97009 9.47971 2.31776 10C2.92633 10.9108 3.79132 11.6207 4.80333 12.0399C5.81534 12.4591 6.92894 12.5688 8.00329 12.3551C9.07763 12.1414 10.0645 11.6139 10.839 10.8393C11.6136 10.0647 12.1411 9.07789 12.3548 8.00354C12.5685 6.92919 12.4588 5.8156 12.0396 4.80359C11.6204 3.79157 10.9106 2.92659 9.99978 2.31802C9.47946 1.97035 8.90691 1.71529 8.3074 1.56049L8.3074 4.73579C8.32539 4.74718 8.34325 4.75879 8.36098 4.77064C8.78669 5.05509 9.11849 5.45939 9.31442 5.93241C9.51035 6.40543 9.56161 6.92592 9.46173 7.42808C9.36184 7.93023 9.1153 8.39149 8.75326 8.75352C8.39123 9.11556 7.92997 9.3621 7.42782 9.46199C6.92566 9.56187 6.40517 9.51061 5.93215 9.31468C5.45913 9.11875 5.05483 8.78695 4.77039 8.36124C4.75854 8.34351 4.74692 8.32565 4.73553 8.30766Z" fill="#FFB000"/>
<path fill-rule="evenodd" clip-rule="evenodd" d="M6.92303 28.6152C9.98182 28.6152 12.4615 26.1356 12.4615 23.0768C12.4615 20.018 9.98182 17.5384 6.92303 17.5384C3.86424 17.5384 1.38461 20.018 1.38461 23.0768C1.38461 26.1356 3.86424 28.6152 6.92303 28.6152ZM6.92303 29.9998C10.7465 29.9998 13.8461 26.9003 13.8461 23.0768C13.8461 19.2533 10.7465 16.1538 6.92303 16.1538C3.09955 16.1538 0 19.2533 0 23.0768C0 26.9003 3.09955 29.9998 6.92303 29.9998Z" fill="#FFB000"/>
<path fill-rule="evenodd" clip-rule="evenodd" d="M23.0768 28.6152C26.1356 28.6152 28.6153 26.1356 28.6153 23.0768C28.6153 20.018 26.1356 17.5384 23.0768 17.5384C20.0181 17.5384 17.5384 20.018 17.5384 23.0768C17.5384 26.1356 20.0181 28.6152 23.0768 28.6152ZM23.0768 29.9998C26.9003 29.9998 29.9999 26.9003 29.9999 23.0768C29.9999 19.2533 26.9003 16.1538 23.0768 16.1538C19.2534 16.1538 16.1538 19.2533 16.1538 23.0768C16.1538 26.9003 19.2534 29.9998 23.0768 29.9998Z" fill="#FFB000"/>
<path fill-rule="evenodd" clip-rule="evenodd" d="M23.0768 12.4615C26.1356 12.4615 28.6153 9.98182 28.6153 6.92303C28.6153 3.86424 26.1356 1.38461 23.0768 1.38461C20.0181 1.38461 17.5384 3.86424 17.5384 6.92303C17.5384 9.98182 20.0181 12.4615 23.0768 12.4615ZM23.0768 13.8461C26.9003 13.8461 29.9999 10.7465 29.9999 6.92303C29.9999 3.09955 26.9003 0 23.0768 0C19.2534 0 16.1538 3.09955 16.1538 6.92303C16.1538 10.7465 19.2534 13.8461 23.0768 13.8461Z" fill="#FFB000"/>
</svg>
