<svg width="65" height="65" viewBox="0 0 65 65" fill="none" xmlns="http://www.w3.org/2000/svg">
<path fill-rule="evenodd" clip-rule="evenodd" d="M-7.62939e-06 15C-7.62939e-06 16.0126 0.102486 17.0175 0.303047 18C0.690079 19.896 1.44231 21.7088 2.52795 23.3335C4.17617 25.8003 6.51885 27.7229 9.25974 28.8582C12.0006 29.9935 15.0166 30.2906 17.9263 29.7118C20.8361 29.133 23.5088 27.7044 25.6066 25.6066C27.7044 23.5088 29.133 20.8361 29.7118 17.9263C30.2906 15.0166 29.9935 12.0006 28.8582 9.25974C27.7229 6.51885 25.8003 4.17617 23.3335 2.52795C21.7088 1.44231 19.896 0.690079 18 0.303047C17.0175 0.102486 16.0126 -7.62939e-06 15 -7.62939e-06L15 12.3912C15.1315 12.3912 15.2622 12.4011 15.3912 12.4206C15.7682 12.4778 16.1297 12.6172 16.4494 12.8308C16.8784 13.1175 17.2128 13.5249 17.4102 14.0016C17.6077 14.4783 17.6594 15.0029 17.5587 15.509C17.458 16.015 17.2096 16.4799 16.8447 16.8447C16.4799 17.2096 16.015 17.458 15.509 17.5587C15.0029 17.6594 14.4783 17.6077 14.0016 17.4102C13.5249 17.2128 13.1175 16.8784 12.8308 16.4494C12.6172 16.1297 12.4778 15.7682 12.4206 15.3912C12.4011 15.2622 12.3912 15.1315 12.3912 15L-7.62939e-06 15ZM10.2609 18L3.38104 18C3.71644 19.299 4.26907 20.5395 5.02236 21.6668C6.34093 23.6402 8.21508 25.1783 10.4078 26.0865C12.6005 26.9948 15.0133 27.2324 17.3411 26.7694C19.6688 26.3064 21.807 25.1635 23.4853 23.4853C25.1635 21.807 26.3064 19.6688 26.7694 17.3411C27.2324 15.0133 26.9948 12.6005 26.0865 10.4078C25.1783 8.21508 23.6402 6.34093 21.6668 5.02236C20.5395 4.26907 19.299 3.71644 18 3.38104L18 10.2609C18.039 10.2856 18.0777 10.3107 18.1161 10.3364C19.0385 10.9527 19.7574 11.8287 20.1819 12.8536C20.6064 13.8785 20.7175 15.0062 20.5011 16.0942C20.2846 17.1822 19.7505 18.1816 18.966 18.966C18.1816 19.7505 17.1822 20.2846 16.0942 20.5011C15.0062 20.7175 13.8785 20.6064 12.8536 20.1819C11.8287 19.7574 10.9527 19.0385 10.3364 18.1161C10.3107 18.0777 10.2856 18.039 10.2609 18Z" fill="#FFB000"/>
<path fill-rule="evenodd" clip-rule="evenodd" d="M15 62C21.6274 62 27 56.6274 27 50C27 43.3726 21.6274 38 15 38C8.37258 38 3 43.3726 3 50C3 56.6274 8.37258 62 15 62ZM15 65C23.2843 65 30 58.2843 30 50C30 41.7157 23.2843 35 15 35C6.71573 35 0 41.7157 0 50C0 58.2843 6.71573 65 15 65Z" fill="#FFB000"/>
<path fill-rule="evenodd" clip-rule="evenodd" d="M50 62C56.6274 62 62 56.6274 62 50C62 43.3726 56.6274 38 50 38C43.3726 38 38 43.3726 38 50C38 56.6274 43.3726 62 50 62ZM50 65C58.2843 65 65 58.2843 65 50C65 41.7157 58.2843 35 50 35C41.7157 35 35 41.7157 35 50C35 58.2843 41.7157 65 50 65Z" fill="#FFB000"/>
<path fill-rule="evenodd" clip-rule="evenodd" d="M50 27C56.6274 27 62 21.6274 62 15C62 8.37258 56.6274 3 50 3C43.3726 3 38 8.37258 38 15C38 21.6274 43.3726 27 50 27ZM50 30C58.2843 30 65 23.2843 65 15C65 6.71573 58.2843 0 50 0C41.7157 0 35 6.71573 35 15C35 23.2843 41.7157 30 50 30Z" fill="#FFB000"/>
</svg>
